<mxfile host="app.diagrams.net" agent="Mozilla/5.0 (Windows NT 10.0; Win64; x64) AppleWebKit/537.36 (KHTML, like Gecko) Chrome/131.0.0.0 Safari/537.36 Edg/131.0.0.0" version="24.9.2">
  <diagram name="Trang-1" id="QsgmYzTBKtwEIA2kBLtk">
    <mxGraphModel dx="1483" dy="687" grid="1" gridSize="10" guides="1" tooltips="1" connect="1" arrows="1" fold="1" page="1" pageScale="1" pageWidth="827" pageHeight="1169" math="0" shadow="0">
      <root>
        <mxCell id="0" />
        <mxCell id="1" parent="0" />
        <mxCell id="QoQQbPLBM4mQMqT8gsts-3" value="" style="edgeStyle=orthogonalEdgeStyle;rounded=0;orthogonalLoop=1;jettySize=auto;html=1;" edge="1" parent="1" source="QoQQbPLBM4mQMqT8gsts-1" target="QoQQbPLBM4mQMqT8gsts-2">
          <mxGeometry relative="1" as="geometry" />
        </mxCell>
        <mxCell id="QoQQbPLBM4mQMqT8gsts-1" value="Start" style="ellipse;whiteSpace=wrap;html=1;" vertex="1" parent="1">
          <mxGeometry x="260" y="50" width="120" height="80" as="geometry" />
        </mxCell>
        <mxCell id="QoQQbPLBM4mQMqT8gsts-5" value="" style="edgeStyle=orthogonalEdgeStyle;rounded=0;orthogonalLoop=1;jettySize=auto;html=1;" edge="1" parent="1" source="QoQQbPLBM4mQMqT8gsts-2" target="QoQQbPLBM4mQMqT8gsts-4">
          <mxGeometry relative="1" as="geometry" />
        </mxCell>
        <mxCell id="QoQQbPLBM4mQMqT8gsts-2" value="Nhập số cần kiểm tra (n)&amp;nbsp;" style="whiteSpace=wrap;html=1;" vertex="1" parent="1">
          <mxGeometry x="260" y="220" width="150" height="60" as="geometry" />
        </mxCell>
        <mxCell id="QoQQbPLBM4mQMqT8gsts-7" value="" style="edgeStyle=orthogonalEdgeStyle;rounded=0;orthogonalLoop=1;jettySize=auto;html=1;" edge="1" parent="1" source="QoQQbPLBM4mQMqT8gsts-4" target="QoQQbPLBM4mQMqT8gsts-6">
          <mxGeometry relative="1" as="geometry" />
        </mxCell>
        <mxCell id="QoQQbPLBM4mQMqT8gsts-9" value="" style="edgeStyle=orthogonalEdgeStyle;rounded=0;orthogonalLoop=1;jettySize=auto;html=1;" edge="1" parent="1" source="QoQQbPLBM4mQMqT8gsts-4" target="QoQQbPLBM4mQMqT8gsts-8">
          <mxGeometry relative="1" as="geometry" />
        </mxCell>
        <mxCell id="QoQQbPLBM4mQMqT8gsts-4" value="n%2==0" style="rhombus;whiteSpace=wrap;html=1;" vertex="1" parent="1">
          <mxGeometry x="295" y="350" width="80" height="80" as="geometry" />
        </mxCell>
        <mxCell id="QoQQbPLBM4mQMqT8gsts-13" style="edgeStyle=orthogonalEdgeStyle;rounded=0;orthogonalLoop=1;jettySize=auto;html=1;entryX=0.5;entryY=0;entryDx=0;entryDy=0;" edge="1" parent="1" source="QoQQbPLBM4mQMqT8gsts-6" target="QoQQbPLBM4mQMqT8gsts-12">
          <mxGeometry relative="1" as="geometry" />
        </mxCell>
        <mxCell id="QoQQbPLBM4mQMqT8gsts-6" value="đó là số chẵn" style="whiteSpace=wrap;html=1;" vertex="1" parent="1">
          <mxGeometry x="490" y="360" width="120" height="60" as="geometry" />
        </mxCell>
        <mxCell id="QoQQbPLBM4mQMqT8gsts-14" style="edgeStyle=orthogonalEdgeStyle;rounded=0;orthogonalLoop=1;jettySize=auto;html=1;entryX=0;entryY=0.5;entryDx=0;entryDy=0;" edge="1" parent="1" source="QoQQbPLBM4mQMqT8gsts-8" target="QoQQbPLBM4mQMqT8gsts-12">
          <mxGeometry relative="1" as="geometry" />
        </mxCell>
        <mxCell id="QoQQbPLBM4mQMqT8gsts-8" value="Đó là số lẻ&amp;nbsp;" style="whiteSpace=wrap;html=1;" vertex="1" parent="1">
          <mxGeometry x="275" y="560" width="120" height="60" as="geometry" />
        </mxCell>
        <mxCell id="QoQQbPLBM4mQMqT8gsts-12" value="end" style="ellipse;whiteSpace=wrap;html=1;" vertex="1" parent="1">
          <mxGeometry x="670" y="550" width="120" height="80" as="geometry" />
        </mxCell>
        <mxCell id="QoQQbPLBM4mQMqT8gsts-15" value="True" style="text;html=1;align=center;verticalAlign=middle;whiteSpace=wrap;rounded=0;" vertex="1" parent="1">
          <mxGeometry x="395" y="360" width="60" height="30" as="geometry" />
        </mxCell>
        <mxCell id="QoQQbPLBM4mQMqT8gsts-16" value="False" style="text;html=1;align=center;verticalAlign=middle;whiteSpace=wrap;rounded=0;" vertex="1" parent="1">
          <mxGeometry x="280" y="480" width="60" height="30" as="geometry" />
        </mxCell>
      </root>
    </mxGraphModel>
  </diagram>
</mxfile>
